<svg width="135" height="40" viewBox="0 0 135 40" fill="none" xmlns="http://www.w3.org/2000/svg">
<g clip-path="url(#clip0)">
<path d="M124.249 0.000618281H10.7566C10.3429 0.000618281 9.9342 0.000618281 9.5216 0.00261828C9.17621 0.00461828 8.83358 0.0104283 8.48488 0.0153183C7.72733 0.0232201 6.97157 0.0822945 6.22416 0.192028C5.4778 0.304151 4.75482 0.515534 4.07967 0.819028C3.40534 1.12509 2.7892 1.52279 2.25357 1.99769C1.71514 2.47126 1.26632 3.01863 0.924356 3.61878C0.581453 4.21773 0.343683 4.85956 0.219258 5.5221C0.0936495 6.1838 0.0260586 6.85314 0.0170916 7.5241C0.00662229 7.8307 0.00551669 8.13832 0 8.44496V31.5592C0.00551669 31.8697 0.00662229 32.1705 0.0170916 32.4811C0.0260614 33.152 0.0936522 33.8213 0.219258 34.483C0.343339 35.1459 0.581124 35.7881 0.924356 36.3873C1.26616 36.9855 1.71505 37.5307 2.25357 38.0016C2.78717 38.4786 3.40371 38.8766 4.07967 39.1803C4.75481 39.4846 5.47772 39.6973 6.22416 39.8111C6.9717 39.92 7.72738 39.9791 8.48488 39.9879C8.83358 39.9947 9.17621 39.9986 9.5216 39.9986C9.93419 40.0006 10.343 40.0006 10.7566 40.0006H124.249C124.655 40.0006 125.067 40.0006 125.472 39.9986C125.816 39.9986 126.169 39.9947 126.512 39.9879C127.268 39.9795 128.023 39.9204 128.769 39.8111C129.518 39.6965 130.243 39.4839 130.921 39.1803C131.597 38.8764 132.213 38.4785 132.746 38.0016C133.283 37.5288 133.733 36.9841 134.079 36.3873C134.42 35.7877 134.655 35.1456 134.777 34.483C134.903 33.8213 134.973 33.1521 134.987 32.4811C134.991 32.1705 134.991 31.8697 134.991 31.5592C135 31.1959 135 30.8346 135 30.4654V9.53675C135 9.17054 135 8.80726 134.991 8.44496C134.991 8.13832 134.991 7.8307 134.987 7.52406C134.973 6.85304 134.903 6.18385 134.777 5.52206C134.655 4.8599 134.419 4.21812 134.079 3.61874C133.383 2.41581 132.278 1.43664 130.921 0.818938C130.243 0.516186 129.518 0.304859 128.769 0.191938C128.023 0.0817211 127.269 0.022626 126.512 0.0151783C126.169 0.0102983 125.816 0.00443828 125.472 0.00248828C125.067 0.000488281 124.655 0.000488281 124.249 0.000488281V0.000618281Z" fill="#A6A6A6"/>
<path d="M9.43001 39.1286C9.08569 39.1286 8.74969 39.1247 8.40807 39.1179C7.70037 39.1097 6.99433 39.0552 6.29574 38.9548C5.64433 38.8555 5.0133 38.6708 4.42345 38.4068C3.839 38.1449 3.30594 37.8016 2.84469 37.3899C2.37676 36.9831 1.98718 36.5113 1.6914 35.9931C1.39236 35.4716 1.18541 34.9126 1.07775 34.3356C0.961494 33.7156 0.898592 33.0887 0.889592 32.4602C0.882427 32.2493 0.873047 31.5469 0.873047 31.5469V8.44153C0.873047 8.44153 0.883037 7.74997 0.889648 7.5468C0.898266 6.91935 0.960802 6.29339 1.07671 5.67434C1.18457 5.09574 1.39168 4.53512 1.69088 4.01189C1.98557 3.4941 2.37299 3.02192 2.8381 2.61365C3.30269 2.20151 3.83745 1.85642 4.42289 1.59097C5.01139 1.32779 5.64123 1.1444 6.29132 1.04691C6.99221 0.945457 7.7007 0.890606 8.41085 0.882818L9.43056 0.870605H125.57L126.602 0.883308C127.306 0.890709 128.008 0.945071 128.702 1.04593C129.359 1.14464 129.995 1.32932 130.59 1.5939C131.763 2.12885 132.718 2.97521 133.32 4.01433C133.614 4.53395 133.818 5.08999 133.924 5.6636C134.042 6.28773 134.107 6.91861 134.121 7.5512C134.124 7.83446 134.124 8.13872 134.124 8.44153C134.133 8.81661 134.133 9.17361 134.133 9.53355V30.4666C134.133 30.83 134.133 31.1845 134.124 31.542C134.124 31.8673 134.124 32.1652 134.12 32.4719C134.107 33.0932 134.042 33.7128 133.927 34.3258C133.821 34.907 133.615 35.4704 133.316 35.9962C133.018 36.5087 132.631 36.9764 132.169 37.3821C131.707 37.796 131.173 38.1413 130.587 38.4049C129.994 38.6709 129.358 38.8563 128.702 38.9548C128.004 39.0557 127.297 39.1103 126.59 39.1179C126.259 39.1247 125.912 39.1286 125.576 39.1286L124.35 39.1306L9.43001 39.1286Z" fill="black"/>
<path d="M32.7973 20.3013C32.8081 19.4666 33.0298 18.6483 33.4418 17.9223C33.8538 17.1964 34.4428 16.5864 35.1539 16.1492C34.7021 15.5041 34.1062 14.9731 33.4134 14.5986C32.7205 14.224 31.9499 14.0162 31.1627 13.9916C29.4835 13.8153 27.8555 14.9964 26.9998 14.9964C26.1275 14.9964 24.81 14.0091 23.3913 14.0383C22.4736 14.0679 21.5793 14.3348 20.7954 14.8128C20.0115 15.2909 19.3649 15.9638 18.9184 16.7661C16.9844 20.1145 18.427 25.0356 20.2796 27.7422C21.2065 29.0676 22.2898 30.548 23.7072 30.4955C25.0943 30.438 25.6123 29.611 27.2866 29.611C28.9454 29.611 29.4314 30.4955 30.8776 30.4621C32.366 30.438 33.3038 29.1309 34.1981 27.793C34.8641 26.8486 35.3766 25.8049 35.7166 24.7005C34.8518 24.3347 34.1139 23.7226 33.5948 22.9403C33.0757 22.158 32.7983 21.2402 32.7973 20.3013Z" fill="white"/>
<path d="M30.0656 12.2113C30.8772 11.2371 31.277 9.98494 31.1802 8.7207C29.9403 8.85092 28.7951 9.44348 27.9726 10.3803C27.5704 10.838 27.2624 11.3704 27.0662 11.9472C26.87 12.524 26.7893 13.1337 26.8289 13.7417C27.449 13.7481 28.0625 13.6137 28.6232 13.3486C29.1838 13.0835 29.6771 12.6946 30.0656 12.2113Z" fill="white"/>
<path d="M50.3308 27.1402H45.5974L44.4607 30.4966H42.4558L46.9392 18.0786H49.0222L53.5056 30.4966H51.4665L50.3308 27.1402ZM46.0876 25.5913H49.8396L47.99 20.1441H47.9383L46.0876 25.5913Z" fill="white"/>
<path d="M63.1883 25.9704C63.1883 28.7839 61.6824 30.5915 59.4099 30.5915C58.8343 30.6216 58.2618 30.489 57.758 30.2089C57.2542 29.9288 56.8395 29.5124 56.5613 29.0075H56.5183V33.4919H54.6599V21.4431H56.4588V22.9489H56.493C56.7839 22.4465 57.2056 22.0323 57.7133 21.7504C58.2209 21.4686 58.7954 21.3296 59.3758 21.3483C61.6736 21.3484 63.1883 23.1648 63.1883 25.9704ZM61.2781 25.9704C61.2781 24.1374 60.3308 22.9323 58.8855 22.9323C57.4656 22.9323 56.5105 24.1628 56.5105 25.9704C56.5105 27.7946 57.4656 29.0163 58.8855 29.0163C60.3308 29.0163 61.2781 27.82 61.2781 25.9704Z" fill="white"/>
<path d="M73.1531 25.9704C73.1531 28.7839 71.6472 30.5915 69.3748 30.5915C68.7991 30.6216 68.2266 30.489 67.7228 30.2089C67.219 29.9287 66.8043 29.5124 66.5262 29.0075H66.4832V33.4919H64.6248V21.4431H66.4236V22.9489H66.4578C66.7487 22.4465 67.1704 22.0323 67.6781 21.7504C68.1857 21.4686 68.7603 21.3296 69.3406 21.3483C71.6385 21.3483 73.1531 23.1647 73.1531 25.9704ZM71.2429 25.9704C71.2429 24.1374 70.2957 22.9323 68.8504 22.9323C67.4304 22.9323 66.4754 24.1628 66.4754 25.9704C66.4754 27.7946 67.4304 29.0163 68.8504 29.0163C70.2957 29.0163 71.243 27.82 71.243 25.9704H71.2429Z" fill="white"/>
<path d="M79.739 27.0367C79.8767 28.2681 81.073 29.0767 82.7078 29.0767C84.2742 29.0767 85.4012 28.2681 85.4012 27.1577C85.4012 26.1939 84.7215 25.6167 83.1121 25.2212L81.5027 24.8335C79.2225 24.2827 78.1638 23.2163 78.1638 21.4858C78.1638 19.3433 80.031 17.8716 82.6824 17.8716C85.3064 17.8716 87.1053 19.3433 87.1658 21.4858H85.2898C85.1775 20.2466 84.1531 19.4985 82.656 19.4985C81.1589 19.4985 80.1345 20.2554 80.1345 21.3569C80.1345 22.2349 80.7888 22.7515 82.3894 23.1469L83.7576 23.4829C86.3054 24.0854 87.364 25.1089 87.364 26.9253C87.364 29.2485 85.5134 30.7036 82.5701 30.7036C79.8162 30.7036 77.9568 29.2827 77.8367 27.0366L79.739 27.0367Z" fill="white"/>
<path d="M91.3747 19.3003V21.4429H93.0964V22.9146H91.3747V27.9058C91.3747 28.6812 91.7195 29.0425 92.4763 29.0425C92.6807 29.0389 92.8848 29.0246 93.0876 28.9995V30.4624C92.7474 30.526 92.4015 30.5547 92.0554 30.5483C90.2224 30.5483 89.5076 29.8598 89.5076 28.104V22.9146H88.1912V21.4429H89.5075V19.3003H91.3747Z" fill="white"/>
<path d="M94.0935 25.9702C94.0935 23.1216 95.7712 21.3315 98.3875 21.3315C101.012 21.3315 102.682 23.1215 102.682 25.9702C102.682 28.8267 101.021 30.6089 98.3875 30.6089C95.7546 30.6089 94.0935 28.8267 94.0935 25.9702ZM100.789 25.9702C100.789 24.0161 99.8933 22.8628 98.3874 22.8628C96.8816 22.8628 95.9871 24.0249 95.9871 25.9702C95.9871 27.9321 96.8816 29.0767 98.3874 29.0767C99.8933 29.0767 100.789 27.9321 100.789 25.9702H100.789Z" fill="white"/>
<path d="M104.215 21.443H105.987V22.984H106.03C106.15 22.5027 106.432 22.0774 106.829 21.7795C107.225 21.4816 107.712 21.3293 108.208 21.3483C108.422 21.3475 108.636 21.3708 108.845 21.4176V23.1559C108.574 23.0733 108.292 23.0353 108.01 23.0436C107.74 23.0326 107.47 23.0802 107.221 23.1831C106.971 23.286 106.746 23.4417 106.562 23.6396C106.378 23.8375 106.239 24.0729 106.155 24.3295C106.07 24.5862 106.042 24.8581 106.073 25.1266V30.4967H104.215L104.215 21.443Z" fill="white"/>
<path d="M117.413 27.8374C117.163 29.481 115.562 30.6089 113.514 30.6089C110.881 30.6089 109.246 28.8442 109.246 26.0132C109.246 23.1733 110.889 21.3315 113.436 21.3315C115.941 21.3315 117.516 23.0522 117.516 25.7974V26.4341H111.122V26.5464C111.092 26.8796 111.134 27.2153 111.244 27.5311C111.354 27.8469 111.531 28.1357 111.761 28.3783C111.991 28.6208 112.271 28.8116 112.58 28.9379C112.89 29.0642 113.223 29.1231 113.557 29.1108C113.997 29.152 114.437 29.0503 114.814 28.8208C115.191 28.5914 115.483 28.2465 115.648 27.8374L117.413 27.8374ZM111.131 25.1353H115.657C115.674 24.8357 115.628 24.5358 115.524 24.2546C115.419 23.9734 115.257 23.7169 115.049 23.5011C114.84 23.2854 114.589 23.115 114.312 23.0008C114.034 22.8866 113.736 22.831 113.436 22.8374C113.134 22.8356 112.834 22.8937 112.554 23.0085C112.274 23.1232 112.019 23.2923 111.805 23.5059C111.59 23.7196 111.42 23.9735 111.305 24.2532C111.189 24.5328 111.13 24.8326 111.131 25.1353V25.1353Z" fill="white"/>
<path d="M45.8547 8.73138C46.2443 8.70342 46.6353 8.76228 46.9994 8.90371C47.3635 9.04515 47.6917 9.26563 47.9603 9.54925C48.2289 9.83288 48.4312 10.1726 48.5526 10.5438C48.674 10.9151 48.7115 11.3087 48.6623 11.6962C48.6623 13.6025 47.6321 14.6982 45.8547 14.6982H43.6995V8.73138H45.8547ZM44.6262 13.8544H45.7512C46.0296 13.871 46.3082 13.8254 46.5668 13.7208C46.8253 13.6161 47.0573 13.4552 47.2458 13.2496C47.4343 13.0441 47.5745 12.7991 47.6564 12.5324C47.7383 12.2658 47.7596 11.9843 47.719 11.7084C47.7567 11.4335 47.7331 11.1538 47.65 10.8891C47.5669 10.6244 47.4263 10.3814 47.2382 10.1775C47.0501 9.97358 46.8193 9.81378 46.5622 9.70954C46.3051 9.6053 46.0282 9.55922 45.7512 9.57459H44.6262V13.8544Z" fill="white"/>
<path d="M49.7093 12.4448C49.681 12.1489 49.7148 11.8503 49.8086 11.5682C49.9025 11.2862 50.0542 11.0268 50.2542 10.8068C50.4541 10.5868 50.6978 10.4111 50.9697 10.2908C51.2415 10.1705 51.5355 10.1084 51.8328 10.1084C52.1301 10.1084 52.4241 10.1705 52.6959 10.2908C52.9678 10.4111 53.2115 10.5868 53.4114 10.8068C53.6114 11.0268 53.7631 11.2862 53.857 11.5682C53.9508 11.8503 53.9846 12.1489 53.9563 12.4448C53.9852 12.741 53.9517 13.04 53.8581 13.3225C53.7645 13.605 53.6129 13.8648 53.4129 14.0853C53.2129 14.3057 52.969 14.4818 52.6969 14.6023C52.4248 14.7229 52.1304 14.7851 51.8328 14.7851C51.5352 14.7851 51.2408 14.7229 50.9687 14.6023C50.6966 14.4818 50.4527 14.3057 50.2527 14.0853C50.0527 13.8648 49.9011 13.605 49.8075 13.3225C49.7139 13.04 49.6804 12.741 49.7093 12.4448ZM53.0423 12.4448C53.0423 11.4687 52.6038 10.8979 51.8343 10.8979C51.0618 10.8979 50.6273 11.4687 50.6273 12.4448C50.6273 13.4287 51.0618 13.9951 51.8343 13.9951C52.6038 13.9951 53.0423 13.4248 53.0423 12.4448H53.0423Z" fill="white"/>
<path d="M59.6018 14.6982H58.6799L57.7493 11.3818H57.679L56.7522 14.6982H55.8391L54.5979 10.1953H55.4993L56.3059 13.6313H56.3723L57.2981 10.1953H58.1506L59.0764 13.6313H59.1467L59.9495 10.1953H60.8381L59.6018 14.6982Z" fill="white"/>
<path d="M61.8821 10.1954H62.7375V10.9107H62.804C62.9166 10.6538 63.1066 10.4384 63.3475 10.2946C63.5884 10.1508 63.8681 10.0857 64.1477 10.1084C64.3668 10.092 64.5868 10.125 64.7914 10.2051C64.996 10.2852 65.18 10.4103 65.3296 10.5711C65.4793 10.732 65.5909 10.9244 65.6561 11.1343C65.7213 11.3441 65.7385 11.5659 65.7063 11.7832V14.6982H64.8176V12.0064C64.8176 11.2828 64.5032 10.9229 63.846 10.9229C63.6972 10.916 63.5487 10.9413 63.4106 10.9971C63.2726 11.0529 63.1482 11.138 63.0461 11.2464C62.944 11.3547 62.8665 11.4839 62.819 11.6251C62.7714 11.7662 62.755 11.9159 62.7707 12.064V14.6983H61.8821L61.8821 10.1954Z" fill="white"/>
<path d="M67.1223 8.4375H68.011V14.6982H67.1223V8.4375Z" fill="white"/>
<path d="M69.2463 12.4449C69.2181 12.1489 69.2519 11.8503 69.3458 11.5683C69.4397 11.2862 69.5914 11.0268 69.7914 10.8068C69.9914 10.5869 70.2351 10.4111 70.507 10.2908C70.7788 10.1705 71.0728 10.1084 71.3701 10.1084C71.6674 10.1084 71.9614 10.1705 72.2333 10.2908C72.5052 10.4111 72.7489 10.5869 72.9489 10.8068C73.1488 11.0268 73.3006 11.2862 73.3945 11.5683C73.4883 11.8503 73.5222 12.1489 73.4939 12.4449C73.5227 12.7411 73.4892 13.0401 73.3956 13.3226C73.302 13.6051 73.1503 13.8649 72.9503 14.0853C72.7503 14.3058 72.5064 14.4819 72.2342 14.6024C71.9621 14.7229 71.6678 14.7852 71.3701 14.7852C71.0725 14.7852 70.7782 14.7229 70.506 14.6024C70.2339 14.4819 69.99 14.3058 69.79 14.0853C69.59 13.8649 69.4383 13.6051 69.3446 13.3226C69.251 13.0401 69.2175 12.7411 69.2463 12.4449ZM72.5793 12.4449C72.5793 11.4688 72.1409 10.898 71.3713 10.898C70.5989 10.898 70.1644 11.4688 70.1644 12.4449C70.1644 13.4288 70.5989 13.9952 71.3713 13.9952C72.1409 13.9952 72.5794 13.4248 72.5794 12.4449H72.5793Z" fill="white"/>
<path d="M74.4294 13.4248C74.4294 12.6142 75.033 12.147 76.1042 12.0806L77.324 12.0102V11.6216C77.324 11.146 77.0095 10.8774 76.4021 10.8774C75.906 10.8774 75.5623 11.0596 75.4636 11.3779H74.6033C74.6941 10.6045 75.4216 10.1084 76.4431 10.1084C77.572 10.1084 78.2087 10.6704 78.2087 11.6216V14.6982H77.3533V14.0654H77.283C77.1402 14.2924 76.9398 14.4775 76.7022 14.6017C76.4646 14.7259 76.1983 14.7848 75.9304 14.7724C75.7414 14.7921 75.5503 14.7719 75.3696 14.7132C75.1888 14.6545 75.0224 14.5586 74.8809 14.4316C74.7395 14.3047 74.6263 14.1495 74.5485 13.9761C74.4708 13.8026 74.4302 13.6149 74.4294 13.4248ZM77.324 13.04V12.6636L76.2244 12.7339C75.6042 12.7754 75.323 12.9863 75.323 13.3833C75.323 13.7886 75.6745 14.0244 76.158 14.0244C76.2996 14.0387 76.4427 14.0244 76.5787 13.9823C76.7147 13.9403 76.8409 13.8712 76.9497 13.7794C77.0584 13.6876 77.1476 13.5748 77.212 13.4477C77.2763 13.3207 77.3144 13.1821 77.324 13.04Z" fill="white"/>
<path d="M79.3767 12.4448C79.3767 11.022 80.1082 10.1206 81.2458 10.1206C81.5273 10.1077 81.8066 10.1751 82.0511 10.315C82.2956 10.4548 82.4953 10.6615 82.6267 10.9106H82.6931V8.4375H83.5818V14.6982H82.7302V13.9868H82.6599C82.5183 14.2343 82.3117 14.4383 82.0624 14.5768C81.8132 14.7153 81.5308 14.783 81.2459 14.7724C80.1003 14.7725 79.3767 13.8711 79.3767 12.4448ZM80.2947 12.4448C80.2947 13.3999 80.7449 13.9746 81.4978 13.9746C82.2468 13.9746 82.7097 13.3916 82.7097 12.4487C82.7097 11.5103 82.242 10.919 81.4978 10.919C80.7498 10.919 80.2947 11.4976 80.2947 12.4448H80.2947Z" fill="white"/>
<path d="M87.2586 12.4448C87.2303 12.1489 87.2641 11.8503 87.358 11.5682C87.4518 11.2862 87.6036 11.0268 87.8035 10.8068C88.0034 10.5868 88.2472 10.4111 88.519 10.2908C88.7909 10.1705 89.0848 10.1084 89.3821 10.1084C89.6794 10.1084 89.9734 10.1705 90.2452 10.2908C90.5171 10.4111 90.7608 10.5868 90.9607 10.8068C91.1607 11.0268 91.3124 11.2862 91.4063 11.5682C91.5001 11.8503 91.534 12.1489 91.5057 12.4448C91.5345 12.741 91.501 13.04 91.4075 13.3225C91.3139 13.605 91.1622 13.8648 90.9622 14.0853C90.7622 14.3057 90.5183 14.4818 90.2462 14.6023C89.9741 14.7229 89.6797 14.7851 89.3821 14.7851C89.0845 14.7851 88.7902 14.7229 88.518 14.6023C88.2459 14.4818 88.002 14.3057 87.802 14.0853C87.602 13.8648 87.4504 13.605 87.3568 13.3225C87.2632 13.04 87.2297 12.741 87.2586 12.4448ZM90.5916 12.4448C90.5916 11.4687 90.1531 10.8979 89.3836 10.8979C88.6111 10.8979 88.1766 11.4687 88.1766 12.4448C88.1766 13.4287 88.6112 13.9951 89.3836 13.9951C90.1531 13.9951 90.5916 13.4248 90.5916 12.4448Z" fill="white"/>
<path d="M92.698 10.1954H93.5535V10.9107H93.6199C93.7325 10.6538 93.9225 10.4384 94.1634 10.2946C94.4043 10.1508 94.684 10.0857 94.9636 10.1084C95.1827 10.092 95.4027 10.125 95.6073 10.2051C95.8119 10.2852 95.9959 10.4103 96.1456 10.5711C96.2952 10.732 96.4068 10.9244 96.472 11.1343C96.5372 11.3441 96.5544 11.5659 96.5222 11.7832V14.6982H95.6336V12.0064C95.6336 11.2828 95.3191 10.9229 94.6619 10.9229C94.5131 10.916 94.3646 10.9413 94.2266 10.9971C94.0885 11.0529 93.9641 11.138 93.862 11.2464C93.7599 11.3547 93.6824 11.4839 93.6349 11.6251C93.5874 11.7662 93.5709 11.9159 93.5867 12.064V14.6983H92.698V10.1954Z" fill="white"/>
<path d="M101.544 9.07422V10.2158H102.519V10.9644H101.544V13.2798C101.544 13.7515 101.738 13.958 102.18 13.958C102.294 13.9576 102.407 13.9508 102.519 13.9375V14.6777C102.36 14.7063 102.198 14.7215 102.036 14.7231C101.048 14.7231 100.654 14.3755 100.654 13.5073V10.9643H99.9392V10.2158H100.654V9.07422H101.544Z" fill="white"/>
<path d="M103.733 8.4375H104.614V10.919H104.684C104.802 10.6596 104.998 10.443 105.243 10.2987C105.489 10.1543 105.773 10.0893 106.057 10.1123C106.275 10.1004 106.493 10.1368 106.695 10.2189C106.898 10.3009 107.079 10.4266 107.228 10.5869C107.376 10.7473 107.487 10.9383 107.552 11.1465C107.618 11.3546 107.637 11.5747 107.608 11.791V14.6982H106.719V12.0103C106.719 11.291 106.384 10.9268 105.756 10.9268C105.603 10.9142 105.449 10.9352 105.306 10.9883C105.162 11.0413 105.031 11.1252 104.923 11.2339C104.815 11.3426 104.732 11.4737 104.68 11.6178C104.628 11.7619 104.608 11.9157 104.622 12.0683V14.6982H103.733L103.733 8.4375Z" fill="white"/>
<path d="M112.79 13.4825C112.669 13.894 112.407 14.25 112.051 14.4882C111.694 14.7263 111.265 14.8315 110.839 14.7852C110.542 14.7931 110.247 14.7362 109.975 14.6187C109.702 14.5012 109.458 14.3258 109.26 14.1046C109.063 13.8835 108.915 13.6219 108.828 13.3381C108.742 13.0543 108.718 12.755 108.758 12.461C108.719 12.1661 108.743 11.8662 108.83 11.5815C108.916 11.2969 109.063 11.0341 109.26 10.811C109.457 10.5879 109.699 10.4098 109.971 10.2886C110.243 10.1674 110.537 10.1059 110.835 10.1085C112.088 10.1085 112.843 10.9645 112.843 12.3785V12.6886H109.664V12.7384C109.65 12.9036 109.671 13.0699 109.725 13.2267C109.779 13.3834 109.865 13.5271 109.978 13.6486C110.091 13.7701 110.228 13.8666 110.38 13.932C110.533 13.9974 110.697 14.0302 110.863 14.0284C111.076 14.0539 111.291 14.0156 111.482 13.9184C111.672 13.8212 111.83 13.6694 111.934 13.4825L112.79 13.4825ZM109.664 12.0313H111.938C111.949 11.8802 111.929 11.7284 111.878 11.5857C111.827 11.443 111.747 11.3125 111.642 11.2026C111.538 11.0928 111.412 11.006 111.272 10.9478C111.132 10.8896 110.981 10.8614 110.83 10.8648C110.676 10.8629 110.523 10.8918 110.381 10.9497C110.239 11.0076 110.109 11.0935 110.001 11.2022C109.892 11.3109 109.806 11.4403 109.748 11.5827C109.691 11.7251 109.662 11.8776 109.664 12.0313H109.664Z" fill="white"/>
</g>
<defs>
<clipPath id="clip0">
<rect width="135" height="40" fill="white" transform="translate(0 0.000488281)"/>
</clipPath>
</defs>
</svg>
