<svg width="198" height="42" viewBox="0 0 198 42" fill="none" xmlns="http://www.w3.org/2000/svg">
<rect x="0.611087" y="0.562259" width="196.851" height="40.8762" rx="6.99198" fill="black"/>
<rect x="0.611087" y="0.562259" width="196.851" height="40.8762" rx="6.99198" stroke="#A6A6A6" stroke-width="1.07569"/>
<path fill-rule="evenodd" clip-rule="evenodd" d="M58.1575 16.069C59.517 16.069 60.8209 15.53 61.7836 14.5702C62.2596 14.0876 62.6337 13.5143 62.884 12.8844C63.1343 12.2545 63.2555 11.5807 63.2405 10.9031C63.2542 10.226 63.1317 9.55308 62.8803 8.92424C62.6289 8.29541 62.2538 7.72347 61.7772 7.24235C61.3022 6.76555 60.7379 6.3871 60.1164 6.12868C59.495 5.87025 58.8287 5.73693 58.1557 5.73633C57.4826 5.73573 56.8161 5.86788 56.1942 6.1252C55.5723 6.38252 55.0073 6.75996 54.5314 7.23592C54.0552 7.71831 53.6808 8.29153 53.4305 8.92151C53.1802 9.55149 53.0592 10.2254 53.0745 10.9031C53.0592 11.5808 53.1802 12.2546 53.4305 12.8846C53.6808 13.5146 54.0552 14.0878 54.5314 14.5702C55.4941 15.53 56.7981 16.069 58.1575 16.069ZM58.1567 14.8536C57.1492 14.8536 56.1829 14.4538 55.4699 13.742C55.1048 13.3674 54.8193 12.9227 54.6306 12.4348C54.4419 11.9469 54.354 11.4259 54.372 10.9031C54.354 10.3803 54.4419 9.85921 54.6306 9.37131C54.8193 8.8834 55.1048 8.43874 55.4699 8.06411C56.1829 7.35232 57.1492 6.95254 58.1567 6.95254C59.1642 6.95254 60.1305 7.35232 60.8435 8.06411C61.2092 8.43844 61.4951 8.88301 61.6841 9.37096C61.8731 9.85892 61.9612 10.3801 61.943 10.9031C61.9612 11.426 61.8731 11.9472 61.6841 12.4352C61.4951 12.9231 61.2092 13.3677 60.8435 13.742C60.1305 14.4538 59.1642 14.8536 58.1567 14.8536ZM78.4437 6.8009H79.7673V9.61285L79.7097 10.4589H79.7673C79.9687 10.1603 80.2756 9.91147 80.688 9.71239C81.11 9.51332 81.5464 9.41378 81.9972 9.41378C82.8604 9.41378 83.5221 9.62944 83.9825 10.0608C84.4524 10.4838 84.6874 11.0893 84.6874 11.8773V15.7096H83.3639V12.1013C83.3639 11.0064 82.8028 10.4589 81.6807 10.4589C81.1436 10.4589 80.688 10.6539 80.314 11.0437C79.9495 11.4253 79.7673 11.8732 79.7673 12.3875V15.7096H78.4437V6.8009ZM76.3246 15.8091C75.7491 15.8091 75.2696 15.6556 74.8859 15.3487C74.5119 15.0418 74.3201 14.6146 74.3105 14.0672V10.658H73.0732V9.61285H74.3105V7.74651H75.634V9.61285H77.3604V10.658H75.634V13.6939C75.634 14.1004 75.7251 14.3782 75.9074 14.5275C76.0896 14.6686 76.2958 14.7391 76.526 14.7391C76.6315 14.7391 76.7322 14.7308 76.8281 14.7142C76.9336 14.6893 77.0295 14.6603 77.1158 14.6271L77.533 15.6474C77.1877 15.7552 76.7849 15.8091 76.3246 15.8091ZM86.5993 14.9879C87.2707 15.6017 88.1243 15.9086 89.1601 15.9086C89.8698 15.9086 90.5028 15.7635 91.0591 15.4732C91.625 15.1828 92.0662 14.7805 92.3827 14.2663L91.203 13.7686C90.7234 14.4985 90.0617 14.8635 89.2177 14.8635C88.6038 14.8635 88.0763 14.681 87.6352 14.316C87.194 13.9511 86.9638 13.47 86.9446 12.8727H92.4834L92.4977 12.7483C92.4977 11.6949 92.186 10.8778 91.5626 10.2972C90.9488 9.70824 90.1192 9.41378 89.0738 9.41378C88.0572 9.41378 87.2227 9.72483 86.5706 10.3469C85.9184 10.9608 85.5923 11.7322 85.5923 12.6612C85.5923 13.5985 85.928 14.3741 86.5993 14.9879ZM91.0879 11.9271H87.0453C87.1604 11.4792 87.3954 11.1225 87.7503 10.8571C88.1147 10.5916 88.5463 10.4589 89.045 10.4589C89.6492 10.4589 90.1288 10.5999 90.4837 10.882C90.8481 11.1557 91.0495 11.5041 91.0879 11.9271ZM66.6253 30.0851C67.8761 29.0033 68.5016 27.5508 68.5016 25.7275C68.5016 25.4115 68.4664 25.0833 68.3962 24.7429H61.0809V26.3109H66.5621C66.4075 27.5872 65.8312 28.59 64.8334 29.3193C63.8355 30.0486 62.5847 30.4133 61.0809 30.4133C59.4365 30.4133 58.0451 29.921 56.9067 28.9364C55.7823 27.9397 55.2202 26.6938 55.2202 25.1987C55.2202 23.7037 55.7823 22.4578 56.9067 21.461C58.0451 20.4765 59.4365 19.9842 61.0809 19.9842C61.9241 19.9842 62.7112 20.124 63.442 20.4035C64.1869 20.6709 64.7912 21.0478 65.255 21.534L66.6464 20.3306C66.0139 19.7107 65.2058 19.2306 64.222 18.8902C63.2382 18.5499 62.1911 18.3797 61.0809 18.3797C58.8884 18.3797 57.0332 19.0361 55.5153 20.3488C53.9974 21.6616 53.2385 23.2782 53.2385 25.1987C53.2385 27.1193 53.9974 28.7359 55.5153 30.0486C57.0332 31.3614 58.8884 32.0178 61.0809 32.0178C63.3717 32.0178 65.2199 31.3736 66.6253 30.0851ZM151.294 20.683C151.294 20.9853 151.171 21.2428 150.925 21.4555C150.679 21.6682 150.382 21.7746 150.032 21.7746C149.683 21.7746 149.385 21.6682 149.139 21.4555C148.893 21.2428 148.77 20.9853 148.77 20.683C148.77 20.3808 148.893 20.1233 149.139 19.9106C149.385 19.6979 149.683 19.5915 150.032 19.5915C150.382 19.5915 150.679 19.6979 150.925 19.9106C151.171 20.1233 151.294 20.3808 151.294 20.683ZM104.756 31.7493V19.7259H102.97V31.7493H104.756ZM70.5564 24.4949C69.6374 25.3234 69.1779 26.3701 69.1779 27.6351C69.1779 28.9002 69.6374 29.9469 70.5564 30.7753C71.4884 31.6038 72.6599 32.018 74.0708 32.018C75.4817 32.018 76.6467 31.6038 77.5657 30.7753C78.4977 29.9581 78.9637 28.9114 78.9637 27.6351C78.9637 26.3701 78.4977 25.3234 77.5657 24.4949C76.6467 23.6665 75.4817 23.2523 74.0708 23.2523C72.6599 23.2523 71.4884 23.6665 70.5564 24.4949ZM71.8573 29.7846C71.2619 29.236 70.9642 28.5195 70.9642 27.6351C70.9642 26.7619 71.2619 26.051 71.8573 25.5025C72.4657 24.9427 73.2035 24.6629 74.0708 24.6629C74.938 24.6629 75.6759 24.9427 76.2842 25.5025C76.8797 26.051 77.1774 26.7619 77.1774 27.6351C77.1774 28.5195 76.8797 29.236 76.2842 29.7846C75.6888 30.3331 74.951 30.6074 74.0708 30.6074C73.1906 30.6074 72.4528 30.3331 71.8573 29.7846ZM81.7531 24.4949C80.8341 25.3234 80.3746 26.3701 80.3746 27.6351C80.3746 28.9002 80.8341 29.9469 81.7531 30.7753C82.6851 31.6038 83.8566 32.018 85.2675 32.018C86.6784 32.018 87.8434 31.6038 88.7624 30.7753C89.6944 29.9581 90.1604 28.9114 90.1604 27.6351C90.1604 26.3701 89.6944 25.3234 88.7624 24.4949C87.8434 23.6665 86.6784 23.2523 85.2675 23.2523C83.8566 23.2523 82.6851 23.6665 81.7531 24.4949ZM83.054 29.7846C82.4586 29.236 82.1609 28.5195 82.1609 27.6351C82.1609 26.7619 82.4586 26.051 83.054 25.5025C83.6624 24.9427 84.4002 24.6629 85.2675 24.6629C86.1347 24.6629 86.8726 24.9427 87.4809 25.5025C88.0764 26.051 88.3741 26.7619 88.3741 27.6351C88.3741 28.5195 88.0764 29.236 87.4809 29.7846C86.8855 30.3331 86.1477 30.6074 85.2675 30.6074C84.3873 30.6074 83.6495 30.3331 83.054 29.7846ZM96.0546 30.6074C96.9348 30.6074 97.6532 30.3331 98.2098 29.7846C98.7923 29.236 99.0836 28.5195 99.0836 27.6351C99.0836 26.7731 98.7923 26.0622 98.2098 25.5025C97.6403 24.9427 96.9219 24.6629 96.0546 24.6629C95.2003 24.6629 94.4819 24.9427 93.8994 25.5025C93.3169 26.0622 93.0257 26.7731 93.0257 27.6351C93.0257 28.5083 93.3169 29.2192 93.8994 29.7678C94.4819 30.3275 95.2003 30.6074 96.0546 30.6074ZM95.9964 35.6451C95.4656 35.6451 94.9673 35.5836 94.5013 35.4604C94.0353 35.3485 93.6082 35.1862 93.2198 34.9734C92.8444 34.7607 92.5208 34.5089 92.249 34.2178C91.9772 33.9267 91.7701 33.6021 91.6277 33.2438L93.3169 32.6393C93.5111 33.1207 93.8476 33.5069 94.3266 33.798C94.8055 34.089 95.3621 34.2346 95.9964 34.2346C96.9672 34.2346 97.7244 33.9827 98.2681 33.4789C98.8117 32.9751 99.0836 32.2811 99.0836 31.3967V30.6074H99.0059C98.6693 31.044 98.2098 31.3911 97.6273 31.6485C97.0578 31.8948 96.4365 32.018 95.7634 32.018C94.5207 32.018 93.4528 31.5982 92.5597 30.7585C91.6795 29.8965 91.2394 28.8554 91.2394 27.6351C91.2394 26.4149 91.6795 25.3793 92.5597 24.5285C93.4528 23.6777 94.5207 23.2523 95.7634 23.2523C96.4365 23.2523 97.0578 23.381 97.6273 23.6385C98.2098 23.8848 98.6693 24.2263 99.0059 24.6629H99.0836V23.521H100.792V31.3967C100.792 32.7177 100.359 33.7532 99.4913 34.5033C98.6111 35.2645 97.4461 35.6451 95.9964 35.6451ZM111.11 32.018C109.712 32.018 108.56 31.6038 107.654 30.7753C106.748 29.9469 106.295 28.9002 106.295 27.6351C106.295 26.3813 106.735 25.3402 107.615 24.5117C108.495 23.6721 109.621 23.2523 110.993 23.2523C112.404 23.2523 113.524 23.6497 114.352 24.4446C115.194 25.2282 115.614 26.3309 115.614 27.7527L115.595 27.9206H108.12C108.146 28.7266 108.456 29.376 109.052 29.8685C109.647 30.3611 110.359 30.6074 111.188 30.6074C112.327 30.6074 113.22 30.1148 113.867 29.1297L115.459 29.8014C115.032 30.4955 114.437 31.0384 113.673 31.4302C112.922 31.8221 112.068 32.018 111.11 32.018ZM108.256 26.6444H113.712C113.66 26.0734 113.388 25.6032 112.896 25.2338C112.417 24.8532 111.77 24.6629 110.955 24.6629C110.281 24.6629 109.699 24.842 109.207 25.2002C108.728 25.5585 108.411 26.0398 108.256 26.6444ZM123.018 27.0474L125.29 21.6234H125.367L127.639 27.0474H123.018ZM119.076 31.7493H121.057L122.416 28.4916H128.26L129.6 31.7493H131.581L126.338 19.7259H124.319L119.076 31.7493ZM139.684 29.4655C139.684 30.182 139.321 30.7865 138.596 31.2791C137.871 31.7717 136.959 32.018 135.858 32.018C134.901 32.018 134.059 31.8053 133.334 31.3799C132.609 30.9433 132.092 30.3723 131.781 29.667L133.373 29.0793C133.606 29.5719 133.943 29.9581 134.383 30.238C134.836 30.5066 135.328 30.641 135.858 30.641C136.428 30.641 136.9 30.5346 137.276 30.3219C137.664 30.1092 137.858 29.8573 137.858 29.5663C137.858 29.0401 137.392 28.6539 136.46 28.4076L134.829 28.0549C132.978 27.6519 132.053 26.8795 132.053 25.7376C132.053 24.9875 132.402 24.3886 133.101 23.9408C133.813 23.4818 134.719 23.2523 135.82 23.2523C136.661 23.2523 137.418 23.4258 138.091 23.7729C138.777 24.1199 139.256 24.5845 139.528 25.1666L137.936 25.7376C137.755 25.3905 137.457 25.1219 137.043 24.9315C136.642 24.73 136.189 24.6293 135.684 24.6293C135.218 24.6293 134.797 24.73 134.422 24.9315C134.059 25.1331 133.878 25.3793 133.878 25.6704C133.878 26.1406 134.389 26.4765 135.412 26.678L136.849 26.997C138.739 27.4 139.684 28.2229 139.684 29.4655ZM147.1 31.2791C147.825 30.7865 148.188 30.182 148.188 29.4655C148.188 28.2229 147.243 27.4 145.353 26.997L143.916 26.678C142.893 26.4765 142.382 26.1406 142.382 25.6704C142.382 25.3793 142.563 25.1331 142.926 24.9315C143.301 24.73 143.722 24.6293 144.188 24.6293C144.693 24.6293 145.146 24.73 145.547 24.9315C145.961 25.1219 146.259 25.3905 146.44 25.7376L148.032 25.1666C147.76 24.5845 147.281 24.1199 146.595 23.7729C145.922 23.4258 145.165 23.2523 144.324 23.2523C143.223 23.2523 142.317 23.4818 141.605 23.9408C140.906 24.3886 140.557 24.9875 140.557 25.7376C140.557 26.8795 141.482 27.6519 143.333 28.0549L144.964 28.4076C145.896 28.6539 146.362 29.0401 146.362 29.5663C146.362 29.8573 146.168 30.1092 145.78 30.3219C145.405 30.5346 144.932 30.641 144.363 30.641C143.832 30.641 143.34 30.5066 142.887 30.238C142.447 29.9581 142.11 29.5719 141.877 29.0793L140.285 29.667C140.596 30.3723 141.114 30.9433 141.838 31.3799C142.563 31.8053 143.405 32.018 144.363 32.018C145.463 32.018 146.375 31.7717 147.1 31.2791ZM159.112 31.2791C159.837 30.7865 160.199 30.182 160.199 29.4655C160.199 28.2229 159.254 27.4 157.364 26.997L155.928 26.678C154.905 26.4765 154.394 26.1406 154.394 25.6704C154.394 25.3793 154.575 25.1331 154.937 24.9315C155.313 24.73 155.733 24.6293 156.199 24.6293C156.704 24.6293 157.157 24.73 157.559 24.9315C157.973 25.1219 158.271 25.3905 158.452 25.7376L160.044 25.1666C159.772 24.5845 159.293 24.1199 158.607 23.7729C157.934 23.4258 157.177 23.2523 156.335 23.2523C155.235 23.2523 154.329 23.4818 153.617 23.9408C152.918 24.3886 152.569 24.9875 152.569 25.7376C152.569 26.8795 153.494 27.6519 155.345 28.0549L156.976 28.4076C157.908 28.6539 158.374 29.0401 158.374 29.5663C158.374 29.8573 158.18 30.1092 157.792 30.3219C157.416 30.5346 156.944 30.641 156.374 30.641C155.844 30.641 155.352 30.5066 154.899 30.238C154.458 29.9581 154.122 29.5719 153.889 29.0793L152.297 29.667C152.607 30.3723 153.125 30.9433 153.85 31.3799C154.575 31.8053 155.416 32.018 156.374 32.018C157.474 32.018 158.387 31.7717 159.112 31.2791ZM150.925 23.521V31.7493H149.139V23.521H150.925ZM164.928 31.8836C164.152 31.8836 163.504 31.6765 162.987 31.2623C162.482 30.8481 162.223 30.2716 162.21 29.5327V24.9315H160.54V23.521H162.21V21.0021H163.996V23.521H166.326V24.9315H163.996V29.0289C163.996 29.5775 164.119 29.9525 164.365 30.154C164.611 30.3443 164.889 30.4395 165.2 30.4395C165.342 30.4395 165.478 30.4283 165.608 30.4059C165.75 30.3723 165.88 30.3331 165.996 30.2883L166.559 31.6653C166.093 31.8109 165.549 31.8836 164.928 31.8836ZM169.553 30.238C169.165 29.9693 168.971 29.6334 168.971 29.2304C168.971 28.7826 169.21 28.4076 169.689 28.1053C170.181 27.8031 170.789 27.6519 171.514 27.6519C172.511 27.6519 173.288 27.8422 173.844 28.2229C173.844 28.8722 173.546 29.4375 172.951 29.9189C172.369 30.4003 171.702 30.641 170.951 30.641C170.42 30.641 169.954 30.5066 169.553 30.238ZM174.407 24.1759C173.644 23.5602 172.602 23.2523 171.281 23.2523C169.586 23.2523 168.304 23.7897 167.437 24.8644L169.01 25.7208C169.592 24.9931 170.382 24.6293 171.378 24.6293C172.038 24.6293 172.614 24.8196 173.106 25.2002C173.598 25.5697 173.844 26.0231 173.844 26.5604V26.9131C173.158 26.5772 172.284 26.4093 171.223 26.4093C169.98 26.4093 168.984 26.6612 168.233 27.1649C167.495 27.6687 167.126 28.346 167.126 29.1968C167.126 30.0029 167.476 30.6746 168.175 31.2119C168.887 31.7493 169.767 32.018 170.815 32.018C172.045 32.018 173.029 31.5478 173.767 30.6074H173.844V31.7493H175.553V26.678C175.553 25.6144 175.171 24.7804 174.407 24.1759ZM176.904 23.521H178.612V24.6629H178.69C178.962 24.2598 179.376 23.924 179.933 23.6553C180.502 23.3866 181.091 23.2523 181.7 23.2523C182.865 23.2523 183.758 23.5434 184.379 24.1255C185.013 24.6964 185.33 25.5137 185.33 26.5772V31.7493H183.544V26.678C183.505 25.3346 182.722 24.6629 181.195 24.6629C180.483 24.6629 179.887 24.9147 179.408 25.4185C178.93 25.9111 178.69 26.5044 178.69 27.1985V31.7493H176.904V23.521ZM188.428 31.2623C188.945 31.6765 189.592 31.8836 190.369 31.8836C190.99 31.8836 191.534 31.8109 192 31.6653L191.437 30.2883C191.321 30.3331 191.191 30.3723 191.049 30.4059C190.919 30.4283 190.783 30.4395 190.641 30.4395C190.33 30.4395 190.052 30.3443 189.806 30.154C189.56 29.9525 189.437 29.5775 189.437 29.0289V24.9315H191.767V23.521H189.437V21.0021H187.651V23.521H185.981V24.9315H187.651V29.5327C187.664 30.2716 187.923 30.8481 188.428 31.2623ZM64.0732 10.1976H65.2898V11.0106H65.3451C65.5387 10.7237 65.8336 10.4845 66.2299 10.2932C66.6355 10.1019 67.0548 10.0063 67.488 10.0063C68.3175 10.0063 68.9534 10.2135 69.3958 10.628C69.8474 11.0345 70.0732 11.6164 70.0732 12.3737V16.0563H68.8014V12.4454C68.7737 11.4889 68.2161 11.0106 67.1285 11.0106C66.6216 11.0106 66.1977 11.19 65.8566 11.5487C65.5156 11.8994 65.3451 12.3219 65.3451 12.8161V16.0563H64.0732V10.1976Z" fill="white"/>
<path d="M17.2364 23.033C11.0821 23.033 6.05513 18.6928 6.08904 13.348C6.11447 8.11331 10.9125 3.7437 17.228 3.73636C23.5858 3.7217 28.4602 8.19395 28.4093 13.5387C28.35 18.7147 23.323 23.0257 17.2364 23.033Z" fill="#4285F4"/>
<path d="M36.0297 24.6167C39.6833 24.7707 42.5062 27.3807 42.3197 30.4307C42.1247 33.5979 39.1069 36.0173 35.5295 35.8633C32.003 35.7094 29.2141 33.2386 29.3073 30.1301C29.4006 26.9188 32.4523 24.4628 36.0297 24.6167Z" fill="#F9BC06"/>
<path d="M41.3951 18.209C41.3867 20.863 38.869 23.0331 35.8002 23.0258C32.7315 23.0185 30.2223 20.841 30.2223 18.1943C30.2223 15.5256 32.74 13.3555 35.8426 13.3628C38.9113 13.3701 41.4036 15.5476 41.3951 18.209Z" fill="#EA4236"/>
<path d="M41.3782 12.5708C41.3782 11.2218 42.6074 10.1514 44.1671 10.1514C45.7015 10.1514 46.9731 11.2438 46.9731 12.5708C46.9731 13.8978 45.71 14.9829 44.1671 14.9829C42.5989 14.9829 41.3782 13.9271 41.3782 12.5708Z" fill="#34A855"/>
</svg>
