<svg width="212" height="40" viewBox="0 0 212 40" fill="none" xmlns="http://www.w3.org/2000/svg">
<path d="M39.4702 19.9971C39.4702 30.7518 30.7518 39.4701 19.997 39.4701C9.24245 39.4701 0.524048 30.7518 0.524048 19.9971C0.524048 9.24233 9.24245 0.523926 19.997 0.523926C30.7518 0.523926 39.4702 9.24233 39.4702 19.9971Z" fill="white" stroke="#43D0FF" stroke-width="1.04796"/>
<path d="M20.863 21.4366H33.9C34.0085 21.4366 34.1234 21.4167 34.2254 21.3793C41.2391 18.8057 32.5321 11.932 29.5893 18.6095" stroke="#43D0FF" stroke-width="1.01243" stroke-linecap="round" stroke-linejoin="round"/>
<path d="M21.5024 20.0572H26.3351C26.4438 20.0572 26.5568 20.0383 26.658 19.9991C30.1032 18.662 25.7053 15.2229 24.2117 18.6119" stroke="#43D0FF" stroke-width="1.01243" stroke-linecap="round" stroke-linejoin="round"/>
<path d="M21.3066 23.5596H31.7764C31.885 23.5596 31.9979 23.5784 32.0994 23.6178C35.5445 24.955 31.1464 28.3939 29.653 25.005" stroke="#43D0FF" stroke-width="1.01243" stroke-linecap="round" stroke-linejoin="round"/>
<path d="M7.94608 33.0131L7.27727 32.2685L6.95879 31.6755L6.70402 30.9307L6.62439 30.4479L6.65624 30.0479L6.84732 29.7584L7.05434 29.5101L7.27727 29.2757L7.50022 29.2206H7.80277L8.18494 29.2757L8.59897 29.3998L9.06077 29.5101L9.49071 29.6757L9.98435 29.8135L10.5417 29.8963H10.908H11.7997H13.1373H13.8539H14.1565L14.5227 29.8135L14.8571 29.6757L15.1437 29.3998L15.3348 29.1378L15.4144 28.9998L15.5418 28.7654L15.6055 28.4344V28.0897L15.5418 27.7586L15.4144 27.4138L15.2871 27.0138L15.2074 26.7243V26.2002L15.2871 25.8002L15.4622 25.4554L15.6055 25.1659L15.7329 24.8623L15.9081 24.4211V24.2281L15.8125 24.0348L15.6055 23.9108L15.1278 23.69L14.4431 23.5659L13.822 23.4833L13.1692 23.3867L12.6118 23.2625L12.0704 23.0971L11.5608 22.9039L11.1309 22.6694L10.8442 22.3799L10.7009 22.1316L10.5895 21.7868L10.7009 21.4696L10.9398 21.1524L11.3857 20.8904L12.0704 20.6835L12.9622 20.5181L13.822 20.3939L14.7138 20.2836L15.2393 20.2284L15.6055 20.1595L15.9081 20.0767L16.1629 19.8284L16.2425 19.6906V19.2492V18.6424L16.7361 18.5044L17.7075 18.27L18.663 18.0218L19.2362 17.8977L19.7617 17.7735L20.2394 17.5804L20.5898 17.3046L20.8605 16.8495V16.5047L20.5898 16.0633L20.2394 15.6358L19.7617 15.1117L19.2362 14.4221L18.663 13.7326L18.2012 13.0982L17.7075 12.4224L17.3094 11.8431L16.7361 10.7812L16.2584 9.92608L15.6374 8.87793" stroke="#43D0FF" stroke-width="1.79396" stroke-linecap="round" stroke-linejoin="round"/>
<path d="M30.2807 7.24951C29.2354 7.24951 28.3878 7.98173 28.3878 8.88477C28.3878 9.78782 29.2354 10.52 30.2807 10.52C31.326 10.52 32.1736 9.78782 32.1736 8.88477C32.1736 7.98173 31.326 7.24951 30.2807 7.24951ZM30.2807 10.2426C29.4129 10.2426 28.709 9.63452 28.709 8.88477C28.709 8.13504 29.4129 7.52692 30.2807 7.52692C31.1486 7.52692 31.8525 8.13504 31.8525 8.88477C31.8525 9.63452 31.1486 10.2426 30.2807 10.2426ZM30.3043 8.2982C30.5283 8.2982 30.6804 8.42157 30.6972 8.60262C30.6987 8.61795 30.7134 8.62964 30.7312 8.62964H30.9708C30.9816 8.62964 30.9905 8.62196 30.9905 8.61248C30.9905 8.29601 30.7015 8.07445 30.3031 8.07445C29.8388 8.07445 29.5708 8.34528 29.5708 8.7928V8.98369C29.5708 9.42791 29.8388 9.69511 30.3031 9.69511C30.7003 9.69511 30.9905 9.48047 30.9905 9.17898C30.9905 9.16949 30.9816 9.16182 30.9708 9.16182H30.7306C30.7129 9.16182 30.6987 9.17351 30.6969 9.18846C30.6791 9.35674 30.5274 9.47244 30.304 9.47244C30.028 9.47244 29.8725 9.29761 29.8725 8.98479V8.7928C29.8729 8.47523 30.0288 8.2982 30.3043 8.2982Z" fill="#43D0FF"/>
<path d="M50.4 28H54.99C55.1033 28 55.34 27.9967 55.7 27.99C56.0667 27.9833 56.4133 27.96 56.74 27.92C57.8867 27.7733 58.8533 27.37 59.64 26.71C60.4267 26.0433 61.0233 25.1967 61.43 24.17C61.8367 23.1433 62.04 22.02 62.04 20.8C62.04 19.58 61.8367 18.4567 61.43 17.43C61.0233 16.4033 60.4267 15.5567 59.64 14.89C58.8533 14.2233 57.8867 13.82 56.74 13.68C56.4067 13.64 56.06 13.6167 55.7 13.61C55.3467 13.6033 55.11 13.6 54.99 13.6H50.4V28ZM52.85 25.73V15.87H54.99C55.19 15.87 55.4433 15.8767 55.75 15.89C56.0567 15.8967 56.3333 15.9267 56.58 15.98C57.2467 16.1067 57.7933 16.4033 58.22 16.87C58.6467 17.3367 58.9633 17.9133 59.17 18.6C59.3833 19.28 59.49 20.0133 59.49 20.8C59.49 21.5533 59.39 22.2733 59.19 22.96C58.99 23.6467 58.6733 24.23 58.24 24.71C57.8133 25.1833 57.26 25.4867 56.58 25.62C56.3333 25.6667 56.0567 25.6967 55.75 25.71C55.4433 25.7233 55.19 25.73 54.99 25.73H52.85ZM64.6039 15.56H67.0139V13.35H64.6039V15.56ZM64.6039 28H67.0139V17.2H64.6039V28ZM74.3394 28.3C74.8994 28.3 75.4094 28.2233 75.8694 28.07C76.336 27.9233 76.7527 27.7167 77.1194 27.45V28.48C77.1327 29.2467 76.896 29.8267 76.4094 30.22C75.9294 30.6133 75.3127 30.81 74.5594 30.81C74.1327 30.81 73.7294 30.7133 73.3494 30.52C72.9694 30.3267 72.6794 30.0367 72.4794 29.65L70.2594 30.75C70.6794 31.4833 71.2727 32.0567 72.0394 32.47C72.8127 32.89 73.6494 33.1 74.5494 33.1C75.7694 33.1 76.816 32.85 77.6894 32.35C78.5694 31.8567 79.1327 31.0867 79.3794 30.04C79.4327 29.8 79.4694 29.5567 79.4894 29.31C79.516 29.0633 79.5294 28.8 79.5294 28.52V17.2H77.4194V17.98C77.0394 17.6333 76.5994 17.3667 76.0994 17.18C75.5994 16.9933 75.0427 16.9 74.4294 16.9C73.4094 16.9 72.5227 17.1467 71.7694 17.64C71.0227 18.1333 70.4427 18.81 70.0294 19.67C69.616 20.53 69.4094 21.5067 69.4094 22.6C69.4094 23.68 69.6127 24.65 70.0194 25.51C70.426 26.37 70.9994 27.05 71.7394 27.55C72.4794 28.05 73.346 28.3 74.3394 28.3ZM74.7094 26.14C74.0827 26.14 73.566 25.9833 73.1594 25.67C72.7527 25.35 72.4494 24.9233 72.2494 24.39C72.056 23.8567 71.9594 23.26 71.9594 22.6C71.9594 21.9467 72.0594 21.3533 72.2594 20.82C72.466 20.28 72.776 19.8533 73.1894 19.54C73.6094 19.22 74.1427 19.06 74.7894 19.06C75.7094 19.06 76.376 19.3867 76.7894 20.04C77.2094 20.6933 77.4194 21.5467 77.4194 22.6C77.4194 23.6467 77.2094 24.5 76.7894 25.16C76.376 25.8133 75.6827 26.14 74.7094 26.14ZM82.5336 15.56H84.9436V13.35H82.5336V15.56ZM82.5336 28H84.9436V17.2H82.5336V28ZM94.2691 28V25.98C93.5957 26.08 92.9957 26.1067 92.4691 26.06C91.9424 26.0133 91.5591 25.79 91.3191 25.39C91.1924 25.1833 91.1224 24.9167 91.1091 24.59C91.1024 24.2567 91.0991 23.8767 91.0991 23.45V19.09H94.2691V17.2H91.0991V14.2H88.6991V17.2H86.7391V19.09H88.6991V23.59C88.6991 24.21 88.7057 24.7633 88.7191 25.25C88.7324 25.73 88.8624 26.2033 89.1091 26.67C89.3891 27.1833 89.7991 27.56 90.3391 27.8C90.8791 28.0333 91.4891 28.1567 92.1691 28.17C92.8557 28.19 93.5557 28.1333 94.2691 28ZM99.6114 28.3C100.471 28.3 101.201 28.16 101.801 27.88C102.408 27.5933 102.941 27.15 103.401 26.55V28H105.511V21.37C105.511 20.9033 105.491 20.4733 105.451 20.08C105.411 19.68 105.295 19.29 105.101 18.91C104.748 18.1967 104.205 17.6833 103.471 17.37C102.745 17.0567 101.901 16.9 100.941 16.9C99.6747 16.9 98.6647 17.1767 97.9114 17.73C97.1581 18.2833 96.6481 19.0167 96.3814 19.93L98.5814 20.62C98.7614 20.0667 99.0781 19.6767 99.5314 19.45C99.9847 19.2233 100.455 19.11 100.941 19.11C101.675 19.11 102.215 19.26 102.561 19.56C102.908 19.8533 103.105 20.31 103.151 20.93C102.205 21.07 101.325 21.2067 100.511 21.34C99.7047 21.4667 99.0181 21.6233 98.4514 21.81C97.5981 22.1033 96.9747 22.52 96.5814 23.06C96.1881 23.5933 95.9914 24.2533 95.9914 25.04C95.9914 25.6333 96.1281 26.1767 96.4014 26.67C96.6814 27.1633 97.0914 27.56 97.6314 27.86C98.1714 28.1533 98.8314 28.3 99.6114 28.3ZM100.091 26.38C99.5247 26.38 99.0914 26.25 98.7914 25.99C98.4981 25.73 98.3514 25.4033 98.3514 25.01C98.3514 24.6567 98.4647 24.37 98.6914 24.15C98.9247 23.93 99.2481 23.7433 99.6614 23.59C100.041 23.4633 100.498 23.3533 101.031 23.26C101.565 23.16 102.261 23.0433 103.121 22.91C103.115 23.1633 103.098 23.4467 103.071 23.76C103.045 24.0667 102.981 24.3433 102.881 24.59C102.801 24.8367 102.645 25.1 102.411 25.38C102.185 25.66 101.878 25.8967 101.491 26.09C101.105 26.2833 100.638 26.38 100.091 26.38ZM108.315 28H110.725V13.3H108.315V28ZM117.724 28H127.024V25.74H120.134V21.67H125.824V19.41H120.134V15.86H127.024V13.6H117.724V28ZM129.403 28H131.833V21.35C131.833 20.6767 132.017 20.13 132.383 19.71C132.757 19.29 133.25 19.08 133.863 19.08C134.497 19.08 134.997 19.29 135.363 19.71C135.73 20.13 135.913 20.7167 135.913 21.47V28H138.313V21.35C138.313 20.6367 138.507 20.08 138.893 19.68C139.287 19.28 139.773 19.08 140.353 19.08C140.973 19.08 141.467 19.29 141.833 19.71C142.207 20.1233 142.393 20.7 142.393 21.44V28H144.803V20.83C144.803 19.6567 144.483 18.7133 143.843 18C143.21 17.2867 142.297 16.93 141.103 16.93C140.403 16.93 139.763 17.0833 139.183 17.39C138.603 17.6967 138.147 18.1167 137.813 18.65C137.527 18.1233 137.12 17.7067 136.593 17.4C136.067 17.0867 135.423 16.93 134.663 16.93C134.017 16.93 133.42 17.06 132.873 17.32C132.333 17.5733 131.887 17.9233 131.533 18.37V17.2H129.403V28ZM147.392 32.8H149.822V27.45C150.188 27.7167 150.602 27.9233 151.062 28.07C151.528 28.2233 152.042 28.3 152.602 28.3C153.602 28.3 154.468 28.05 155.202 27.55C155.942 27.05 156.515 26.37 156.922 25.51C157.328 24.65 157.532 23.68 157.532 22.6C157.532 21.5067 157.325 20.53 156.912 19.67C156.505 18.81 155.925 18.1333 155.172 17.64C154.418 17.1467 153.532 16.9 152.512 16.9C151.898 16.9 151.342 16.9933 150.842 17.18C150.342 17.3667 149.902 17.6333 149.522 17.98V17.2H147.392V32.8ZM152.232 26.14C151.265 26.14 150.572 25.8133 150.152 25.16C149.732 24.5 149.522 23.6467 149.522 22.6C149.522 21.5467 149.728 20.6933 150.142 20.04C150.562 19.3867 151.232 19.06 152.152 19.06C152.798 19.06 153.328 19.22 153.742 19.54C154.162 19.8533 154.472 20.28 154.672 20.82C154.878 21.3533 154.982 21.9467 154.982 22.6C154.982 23.26 154.882 23.8567 154.682 24.39C154.488 24.9233 154.188 25.35 153.782 25.67C153.375 25.9833 152.858 26.14 152.232 26.14ZM159.936 28H162.346V13.3H159.936V28ZM170.111 28.3C171.191 28.3 172.135 28.06 172.941 27.58C173.748 27.0933 174.375 26.4233 174.821 25.57C175.275 24.71 175.501 23.72 175.501 22.6C175.501 21.4867 175.278 20.5033 174.831 19.65C174.385 18.79 173.758 18.1167 172.951 17.63C172.145 17.1433 171.198 16.9 170.111 16.9C169.051 16.9 168.118 17.14 167.311 17.62C166.505 18.1 165.875 18.7667 165.421 19.62C164.968 20.4733 164.741 21.4667 164.741 22.6C164.741 23.7133 164.961 24.7 165.401 25.56C165.848 26.4133 166.475 27.0833 167.281 27.57C168.088 28.0567 169.031 28.3 170.111 28.3ZM170.111 26.04C169.185 26.04 168.481 25.73 168.001 25.11C167.528 24.4833 167.291 23.6467 167.291 22.6C167.291 21.58 167.518 20.7533 167.971 20.12C168.431 19.48 169.145 19.16 170.111 19.16C171.058 19.16 171.768 19.4733 172.241 20.1C172.715 20.72 172.951 21.5533 172.951 22.6C172.951 23.6133 172.715 24.44 172.241 25.08C171.775 25.72 171.065 26.04 170.111 26.04ZM178.734 32.8H180.994L187.014 17.2H184.604L181.674 24.93L178.654 17.2H176.144L180.514 27.92L178.734 32.8ZM193.025 28.3C194.065 28.3 195.015 28.0333 195.875 27.5C196.742 26.96 197.382 26.2 197.795 25.22L195.415 24.5C194.935 25.5267 194.092 26.04 192.885 26.04C192.065 26.04 191.418 25.8033 190.945 25.33C190.472 24.85 190.188 24.1633 190.095 23.27H197.915C198.008 21.97 197.865 20.8433 197.485 19.89C197.105 18.9367 196.522 18.2 195.735 17.68C194.955 17.16 194.005 16.9 192.885 16.9C191.825 16.9 190.892 17.14 190.085 17.62C189.278 18.0933 188.648 18.7667 188.195 19.64C187.742 20.5133 187.515 21.54 187.515 22.72C187.515 23.8133 187.745 24.78 188.205 25.62C188.672 26.46 189.318 27.1167 190.145 27.59C190.972 28.0633 191.932 28.3 193.025 28.3ZM192.985 19.01C193.732 19.01 194.305 19.2067 194.705 19.6C195.112 19.9867 195.368 20.6033 195.475 21.45H190.155C190.442 19.8233 191.385 19.01 192.985 19.01ZM205.056 28.3C206.096 28.3 207.046 28.0333 207.906 27.5C208.773 26.96 209.413 26.2 209.826 25.22L207.446 24.5C206.966 25.5267 206.123 26.04 204.916 26.04C204.096 26.04 203.449 25.8033 202.976 25.33C202.503 24.85 202.219 24.1633 202.126 23.27H209.946C210.039 21.97 209.896 20.8433 209.516 19.89C209.136 18.9367 208.553 18.2 207.766 17.68C206.986 17.16 206.036 16.9 204.916 16.9C203.856 16.9 202.923 17.14 202.116 17.62C201.309 18.0933 200.679 18.7667 200.226 19.64C199.773 20.5133 199.546 21.54 199.546 22.72C199.546 23.8133 199.776 24.78 200.236 25.62C200.703 26.46 201.349 27.1167 202.176 27.59C203.003 28.0633 203.963 28.3 205.056 28.3ZM205.016 19.01C205.763 19.01 206.336 19.2067 206.736 19.6C207.143 19.9867 207.399 20.6033 207.506 21.45H202.186C202.473 19.8233 203.416 19.01 205.016 19.01Z" fill="black"/>
</svg>
